<?xml version="1.0" standalone="no"?>
<!DOCTYPE svg PUBLIC "-//W3C//DTD SVG 20010904//EN"
 "http://www.w3.org/TR/2001/REC-SVG-20010904/DTD/svg10.dtd">
<svg version="1.0" xmlns="http://www.w3.org/2000/svg"
 width="900.000000pt" height="900.000000pt" viewBox="0 0 900.000000 900.000000"
 preserveAspectRatio="xMidYMid meet">

<g transform="translate(0.000000,900.000000) scale(0.100000,-0.100000)"
fill="#000000" stroke="none">
<path d="M4493 6716 c5 -15 147 -85 217 -106 85 -27 192 -35 260 -21 30 6 88
27 131 46 135 61 203 47 314 -68 64 -66 175 -141 175 -119 0 20 -49 179 -70
224 l-21 48 -504 2 c-303 2 -504 -1 -502 -6z"/>
<path d="M3522 6672 c-34 -78 -71 -216 -82 -304 -5 -45 -8 -83 -6 -85 5 -6 51
61 107 157 43 73 131 171 218 243 l45 37 -131 0 -131 0 -20 -48z"/>
<path d="M4405 4971 c-160 -42 -184 -177 -43 -241 24 -11 51 -20 61 -20 9 0
17 -8 17 -17 0 -19 -62 -595 -84 -787 -14 -113 -13 -123 5 -170 10 -28 19 -58
18 -66 -1 -35 -41 87 -293 885 l-82 260 -44 -3 c-106 -7 -306 -35 -444 -63
-672 -134 -980 -359 -1237 -904 -161 -343 -283 -848 -306 -1272 l-6 -113 460
0 460 0 12 108 c35 316 130 611 275 857 l41 70 3 -518 2 -517 1275 0 1275 0 0
485 c0 267 3 485 8 485 13 0 129 -213 176 -323 76 -178 132 -394 151 -580 l7
-67 462 2 461 3 -3 60 c-5 111 -42 381 -71 522 -120 581 -377 1098 -669 1346
-210 178 -501 298 -902 371 -136 25 -420 60 -427 52 -2 -2 -69 -228 -149 -502
-80 -275 -147 -505 -150 -513 -11 -34 -10 -45 -44 544 -11 187 -20 345 -20
350 0 6 17 17 38 24 109 39 148 123 88 189 -42 48 -94 66 -196 68 -52 2 -108
0 -125 -5z m222 -1273 c-3 -8 -6 -5 -6 6 -1 11 2 17 5 13 3 -3 4 -12 1 -19z
m-228 -88 c0 -10 -3 -8 -9 5 -12 27 -12 43 0 25 5 -8 9 -22 9 -30z m208 18
c-3 -8 -6 -5 -6 6 -1 11 2 17 5 13 3 -3 4 -12 1 -19z m-21 -69 c-8 -24 -14
-37 -15 -28 -1 19 20 82 25 76 2 -2 -2 -23 -10 -48z m-158 -49 c0 -8 -6 1 -13
20 -7 19 -13 42 -13 50 0 8 6 -1 13 -20 7 -19 13 -42 13 -50z m129 -52 c-3 -8
-6 -5 -6 6 -1 11 2 17 5 13 3 -3 4 -12 1 -19z m-27 -85 c-11 -17 -11 -17 -6 0
3 10 6 24 7 30 0 9 2 9 5 0 3 -7 0 -20 -6 -30z m-51 -23 c0 -9 -4 -8 -9 5 -5
11 -9 27 -9 35 0 9 4 8 9 -5 5 -11 9 -27 9 -35z m31 -55 c-6 -15 -13 -25 -16
-22 -4 3 0 20 7 37 17 37 24 25 9 -15z m1038 -212 l-3 -178 -327 -2 -328 -1 0
179 0 179 330 0 330 0 -2 -177z"/>
<path d="M5378 2333 c12 -2 32 -2 45 0 12 2 2 4 -23 4 -25 0 -35 -2 -22 -4z"/>
<path d="M5498 2323 c7 -3 16 -2 19 1 4 3 -2 6 -13 5 -11 0 -14 -3 -6 -6z"/>
<path d="M5129 2243 l-34 -38 38 34 c34 33 42 41 34 41 -2 0 -19 -17 -38 -37z"/>
<path d="M6010 2280 c0 -3 9 -29 20 -58 11 -29 20 -56 20 -62 0 -5 -26 -11
-57 -13 l-58 -3 62 -2 61 -2 31 -82 c16 -46 30 -75 30 -66 1 10 -10 47 -24 83
l-24 65 87 2 87 2 -89 5 -88 6 -20 55 c-17 47 -38 85 -38 70z"/>
<path d="M6240 2279 c-1 -19 43 -126 56 -136 9 -6 13 -16 9 -22 -3 -6 5 -43
19 -81 15 -39 26 -73 26 -75 0 -2 -39 -6 -87 -8 l-88 -3 92 -2 91 -2 18 -47
c9 -27 23 -63 31 -82 22 -57 20 -60 -59 -64 l-73 -3 83 -1 c54 0 82 4 82 11 0
6 -18 55 -39 109 -21 53 -35 97 -30 97 5 0 9 -4 9 -10 0 -12 206 -14 213 -2 8
12 -41 123 -60 138 -24 18 -38 18 -23 -1 6 -8 9 -19 5 -25 -13 -21 -23 -9 -21
29 0 22 4 37 9 34 4 -2 10 2 13 11 6 17 -34 136 -47 136 -4 0 3 -27 17 -60 13
-33 24 -62 24 -65 0 -3 -49 -5 -108 -5 l-109 0 -12 43 c-13 40 -40 99 -41 86z
m196 -150 c4 -8 9 -7 15 2 13 22 30 -3 32 -48 1 -35 4 -39 27 -38 17 0 25 6
24 18 -1 9 3 14 8 11 5 -3 7 -12 4 -19 -3 -8 0 -15 5 -17 5 -2 11 -13 12 -26
0 -12 5 -22 9 -22 4 0 5 -7 2 -15 -5 -12 -25 -15 -95 -15 -49 0 -89 4 -89 9 0
5 -9 13 -20 16 -11 3 -20 11 -20 16 0 6 7 6 19 -1 24 -12 31 -13 31 -1 0 5
-14 11 -31 15 -26 5 -29 8 -19 21 6 8 10 20 7 27 -4 8 -6 7 -6 -4 -1 -10 -6
-18 -12 -18 -5 0 -7 5 -4 11 4 5 0 18 -9 27 -9 11 -13 27 -9 40 5 19 12 22 59
22 29 0 56 -5 60 -11z"/>
<path d="M6395 2119 c-4 -6 -5 -12 -2 -15 2 -3 7 2 10 11 7 17 1 20 -8 4z"/>
<path d="M6330 2100 c0 -5 5 -10 10 -10 6 0 10 5 10 10 0 6 -4 10 -10 10 -5 0
-10 -4 -10 -10z"/>
<path d="M6378 2055 c-2 -21 0 -35 7 -35 7 0 9 14 7 35 -2 19 -5 35 -7 35 -2
0 -5 -16 -7 -35z"/>
<path d="M6695 2264 c4 -10 16 -40 26 -66 l19 -47 -78 -4 -77 -4 83 1 c46 1
82 -3 82 -9 0 -17 45 -125 52 -125 7 0 -1 22 -39 117 -3 9 19 13 84 16 l88 3
-91 2 -92 2 -22 60 c-12 33 -27 63 -33 67 -7 4 -8 0 -2 -13z"/>
<path d="M6925 2261 c14 -45 35 -90 45 -96 6 -4 -1 20 -15 51 -28 62 -42 84
-30 45z"/>
<path d="M7170 2215 l29 -65 -102 -2 -102 -2 104 -5 104 -6 38 -88 38 -88
-111 3 -111 3 -30 79 c-17 43 -33 74 -34 69 -4 -12 32 -109 53 -140 14 -22 21
-23 127 -23 l112 -1 69 -164 c39 -91 73 -165 77 -165 8 0 -11 50 -37 102 l-14
27 102 4 103 3 -105 2 -105 2 -35 86 c-19 48 -37 91 -39 96 -2 6 36 8 93 6 53
-2 96 1 96 5 0 5 -45 7 -99 5 l-99 -3 -31 75 c-16 41 -33 83 -37 93 -6 15 3
17 87 19 l94 2 -99 5 -98 6 -25 63 c-14 34 -29 62 -34 62 -4 0 5 -29 21 -65z"/>
<path d="M5716 2220 c12 -14 26 -34 32 -45 6 -11 12 -14 12 -7 0 7 -15 27 -32
45 -18 18 -23 21 -12 7z"/>
<path d="M5461 2177 c2 -1 13 -9 24 -17 19 -14 19 -14 6 3 -7 9 -18 17 -24 17
-6 0 -8 -1 -6 -3z"/>
<path d="M5082 2145 c0 -16 2 -22 5 -12 2 9 2 23 0 30 -3 6 -5 -1 -5 -18z"/>
<path d="M1830 2147 c0 -5 10 -5 21 -2 16 5 19 4 14 -5 -5 -9 -4 -11 4 -6 6 4
9 11 6 16 -7 11 -45 9 -45 -3z"/>
<path d="M1788 2124 c-9 -20 -9 -27 2 -34 7 -4 19 -6 27 -3 7 3 13 0 13 -6 0
-6 -4 -11 -10 -11 -5 0 -7 -7 -3 -17 5 -14 8 -13 15 6 10 27 2 43 -19 39 -9
-2 -18 3 -21 11 -3 8 0 11 7 7 6 -4 11 -5 11 -2 0 2 3 11 6 20 10 27 -16 18
-28 -10z"/>
<path d="M5761 2134 c0 -11 3 -14 6 -6 3 7 2 16 -1 19 -3 4 -6 -2 -5 -13z"/>
<path d="M3181 2104 c0 -11 3 -14 6 -6 3 7 2 16 -1 19 -3 4 -6 -2 -5 -13z"/>
<path d="M3011 2094 c0 -11 3 -14 6 -6 3 7 2 16 -1 19 -3 4 -6 -2 -5 -13z"/>
<path d="M5090 2093 c0 -6 8 -17 18 -24 16 -13 16 -13 2 6 -8 11 -16 22 -17
24 -2 2 -3 0 -3 -6z"/>
<path d="M3172 2060 c0 -14 2 -19 5 -12 2 6 2 18 0 25 -3 6 -5 1 -5 -13z"/>
<path d="M5716 2028 c-37 -39 -33 -44 7 -9 16 14 43 53 35 50 -2 0 -21 -19
-42 -41z"/>
<path d="M3001 2044 c0 -11 3 -14 6 -6 3 7 2 16 -1 19 -3 4 -6 -2 -5 -13z"/>
<path d="M5140 2036 c0 -2 8 -10 18 -17 15 -13 16 -12 3 4 -13 16 -21 21 -21
13z"/>
<path d="M1743 2006 c-23 -20 -26 -27 -15 -38 11 -11 12 -10 6 5 -3 10 -3 17
2 15 5 -2 9 1 9 5 0 5 14 15 30 22 18 8 23 14 13 14 -9 1 -30 -10 -45 -23z"/>
<path d="M1826 2022 c-3 -6 2 -9 12 -8 11 1 18 -7 20 -23 2 -14 0 -21 -6 -17
-6 3 -13 -2 -17 -13 -3 -10 -15 -21 -27 -25 -12 -3 -20 -8 -16 -11 3 -3 17 -1
32 5 32 12 54 55 40 78 -13 20 -30 26 -38 14z"/>
<path d="M3161 2014 c0 -11 3 -14 6 -6 3 7 2 16 -1 19 -3 4 -6 -2 -5 -13z"/>
<path d="M2991 2004 c0 -11 3 -14 6 -6 3 7 2 16 -1 19 -3 4 -6 -2 -5 -13z"/>
<path d="M5180 2006 c0 -2 7 -7 16 -10 8 -3 12 -2 9 4 -6 10 -25 14 -25 6z"/>
<path d="M3151 1964 c0 -11 3 -14 6 -6 3 7 2 16 -1 19 -3 4 -6 -2 -5 -13z"/>
<path d="M2981 1954 c0 -11 3 -14 6 -6 3 7 2 16 -1 19 -3 4 -6 -2 -5 -13z"/>
<path d="M5318 1953 c7 -3 16 -2 19 1 4 3 -2 6 -13 5 -11 0 -14 -3 -6 -6z"/>
<path d="M6033 1953 c15 -2 39 -2 55 0 15 2 2 4 -28 4 -30 0 -43 -2 -27 -4z"/>
<path d="M6603 1952 c-9 -6 3 -48 48 -162 34 -85 66 -159 71 -165 12 -11 11
-8 -21 73 l-21 53 112 -3 111 -3 28 -67 c48 -117 52 -107 -43 -111 l-83 -3 86
-2 86 -2 32 -72 c17 -39 34 -69 36 -66 3 3 -9 36 -27 74 -43 92 -42 91 -27 77
8 -8 43 -13 96 -13 67 0 84 3 92 17 8 15 11 15 26 3 16 -14 17 -13 10 10 -25
79 -46 111 -92 140 -43 27 -55 30 -113 28 -59 -3 -65 -5 -65 -25 0 -12 -4 -25
-9 -30 -5 -4 -6 -3 -2 4 3 6 -4 21 -16 32 -19 19 -35 21 -132 21 l-111 0 -33
88 c-18 48 -32 90 -32 94 0 4 35 9 78 11 l77 3 -75 2 c-41 1 -81 -2 -87 -6z
m471 -209 c15 -4 16 -7 5 -15 -10 -7 -9 -8 6 -4 39 11 48 -12 36 -96 -2 -13
-89 -9 -95 5 -3 6 -3 2 0 -10 3 -13 1 -23 -5 -23 -6 0 -11 5 -11 10 0 6 -7 10
-16 10 -9 0 -12 5 -8 13 5 7 0 6 -11 -3 -10 -8 -16 -10 -12 -4 3 6 0 20 -8 30
-16 21 -20 38 -7 30 5 -3 8 10 7 29 l-2 34 51 -1 c28 0 59 -2 70 -5z m83 -57
c-3 -8 1 -20 9 -26 21 -18 17 -32 -7 -25 -20 7 -20 6 -3 -14 12 -13 20 -17 25
-10 4 8 9 8 13 1 3 -6 -3 -13 -14 -17 -11 -3 -20 -10 -20 -14 0 -4 -34 -8 -76
-9 -60 0 -81 4 -95 17 -15 14 -16 18 -4 18 8 0 15 -4 15 -9 0 -6 32 -8 70 -6
39 2 70 -1 70 -5 0 -5 5 -5 12 -1 9 6 9 9 0 12 -7 2 -10 8 -6 13 3 5 0 9 -5 9
-6 0 -11 -4 -11 -10 0 -5 -21 -9 -47 -8 -48 1 -48 1 -8 5 49 5 58 13 61 55 3
41 2 38 15 38 6 0 9 -6 6 -14z"/>
<path d="M6978 1733 c7 -3 16 -2 19 1 4 3 -2 6 -13 5 -11 0 -14 -3 -6 -6z"/>
<path d="M6928 1953 c18 -2 45 -2 60 0 15 2 0 4 -33 4 -33 0 -45 -2 -27 -4z"/>
<path d="M1724 1938 c2 -7 15 -13 29 -13 33 -1 33 1 6 16 -15 8 -19 8 -15 0 4
-6 3 -11 -3 -11 -5 0 -12 5 -14 10 -3 6 -4 5 -3 -2z"/>
<path d="M5408 1943 c23 -2 61 -2 85 0 23 2 4 4 -43 4 -47 0 -66 -2 -42 -4z"/>
<path d="M6130 1939 c0 -2 14 -40 30 -82 17 -43 30 -83 30 -89 0 -6 -20 -9
-50 -6 -28 1 -50 0 -50 -4 0 -9 104 -11 113 -2 7 7 -49 164 -64 179 -5 5 -9 7
-9 4z"/>
<path d="M2971 1914 c0 -11 3 -14 6 -6 3 7 2 16 -1 19 -3 4 -6 -2 -5 -13z"/>
<path d="M7071 1915 c0 -18 47 -119 49 -104 0 3 -11 32 -25 65 -13 32 -24 50
-24 39z"/>
<path d="M1766 1895 c4 -8 8 -15 10 -15 2 0 4 7 4 15 0 8 -4 15 -10 15 -5 0
-7 -7 -4 -15z"/>
<path d="M6846 1888 c4 -13 15 -41 26 -63 22 -48 17 -8 -7 48 -17 40 -31 51
-19 15z"/>
<path d="M1750 1885 c0 -5 5 -17 10 -25 5 -8 10 -10 10 -5 0 6 -5 17 -10 25
-5 8 -10 11 -10 5z"/>
<path d="M2961 1874 c0 -11 3 -14 6 -6 3 7 2 16 -1 19 -3 4 -6 -2 -5 -13z"/>
<path d="M3131 1874 c0 -11 3 -14 6 -6 3 7 2 16 -1 19 -3 4 -6 -2 -5 -13z"/>
<path d="M1740 1855 c0 -5 5 -17 10 -25 5 -8 10 -10 10 -5 0 6 -5 17 -10 25
-5 8 -10 11 -10 5z"/>
<path d="M5523 1843 c15 -2 39 -2 55 0 15 2 2 4 -28 4 -30 0 -43 -2 -27 -4z"/>
<path d="M3121 1824 c0 -11 3 -14 6 -6 3 7 2 16 -1 19 -3 4 -6 -2 -5 -13z"/>
<path d="M5428 1833 c7 -3 16 -2 19 1 4 3 -2 6 -13 5 -11 0 -14 -3 -6 -6z"/>
<path d="M5628 1833 c7 -3 16 -2 19 1 4 3 -2 6 -13 5 -11 0 -14 -3 -6 -6z"/>
<path d="M1730 1825 c0 -5 5 -17 10 -25 5 -8 10 -10 10 -5 0 6 -5 17 -10 25
-5 8 -10 11 -10 5z"/>
<path d="M5388 1823 c7 -3 16 -2 19 1 4 3 -2 6 -13 5 -11 0 -14 -3 -6 -6z"/>
<path d="M5314 1794 c-18 -14 -18 -15 4 -4 12 6 22 13 22 15 0 8 -5 6 -26 -11z"/>
<path d="M1720 1795 c0 -5 5 -17 10 -25 5 -8 10 -10 10 -5 0 6 -5 17 -10 25
-5 8 -10 11 -10 5z"/>
<path d="M2941 1784 c0 -11 3 -14 6 -6 3 7 2 16 -1 19 -3 4 -6 -2 -5 -13z"/>
<path d="M5543 1793 c9 -2 23 -2 30 0 6 3 -1 5 -18 5 -16 0 -22 -2 -12 -5z"/>
<path d="M3111 1774 c0 -11 3 -14 6 -6 3 7 2 16 -1 19 -3 4 -6 -2 -5 -13z"/>
<path d="M5618 1783 c7 -3 16 -2 19 1 4 3 -2 6 -13 5 -11 0 -14 -3 -6 -6z"/>
<path d="M5264 1758 l-19 -23 23 19 c21 18 27 26 19 26 -2 0 -12 -10 -23 -22z"/>
<path d="M5847 1744 c23 -22 46 -48 52 -59 6 -11 11 -15 11 -9 0 17 -37 61
-73 85 -26 18 -24 14 10 -17z"/>
<path d="M1710 1765 c0 -5 5 -17 10 -25 5 -8 10 -10 10 -5 0 6 -5 17 -10 25
-5 8 -10 11 -10 5z"/>
<path d="M5358 1731 c-18 -16 -31 -31 -28 -33 3 -2 20 12 38 30 42 40 34 42
-10 3z"/>
<path d="M6538 1753 c23 -2 59 -2 80 0 20 2 1 4 -43 4 -44 0 -61 -2 -37 -4z"/>
<path d="M7243 1753 c20 -2 54 -2 75 0 20 2 3 4 -38 4 -41 0 -58 -2 -37 -4z"/>
<path d="M2931 1734 c0 -11 3 -14 6 -6 3 7 2 16 -1 19 -3 4 -6 -2 -5 -13z"/>
<path d="M3102 1730 c0 -14 2 -19 5 -12 2 6 2 18 0 25 -3 6 -5 1 -5 -13z"/>
<path d="M1706 1717 c3 -10 9 -15 12 -12 3 3 0 11 -7 18 -10 9 -11 8 -5 -6z"/>
<path d="M4924 1706 c-11 -8 -31 -16 -44 -18 -16 -2 -25 -10 -25 -20 0 -10 -9
-24 -19 -31 -21 -15 -14 -37 11 -37 10 0 13 -6 9 -17 -9 -22 11 -33 46 -26 17
3 28 1 28 -6 0 -17 47 -13 54 4 4 10 16 15 33 13 23 -3 28 1 28 20 0 12 7 27
15 32 13 9 12 13 -6 28 -12 9 -24 25 -28 36 -4 13 -12 17 -28 13 -13 -4 -29 0
-38 8 -14 12 -19 13 -36 1z m54 -58 c18 -18 14 -38 -10 -47 -28 -10 -55 -3
-62 16 -14 34 44 59 72 31z"/>
<path d="M2921 1694 c0 -11 3 -14 6 -6 3 7 2 16 -1 19 -3 4 -6 -2 -5 -13z"/>
<path d="M6220 1702 c0 -6 9 -34 20 -62 11 -28 20 -55 20 -60 0 -6 -26 -11
-57 -12 l-58 -1 64 -6 64 -6 28 -75 c15 -41 28 -81 28 -87 1 -9 -15 -13 -49
-13 -27 0 -50 -3 -50 -7 0 -5 25 -8 57 -8 l56 0 34 -85 c18 -47 33 -88 33 -92
0 -4 -24 -9 -52 -11 l-53 -3 57 -2 56 -2 27 -72 c15 -40 32 -77 38 -83 13 -13
5 14 -26 93 l-26 62 112 2 112 2 -114 5 -115 6 -33 85 c-18 47 -33 89 -33 93
0 4 50 6 111 5 l112 -3 32 -83 32 -84 68 89 c38 48 72 92 76 97 5 5 15 4 24
-4 17 -14 197 -21 188 -7 -3 5 -41 7 -84 6 -44 -1 -84 2 -88 7 -4 5 -19 35
-32 67 -19 48 -31 63 -71 87 -43 27 -57 30 -128 30 -43 0 -82 -4 -85 -10 -3
-5 9 -48 28 -95 l34 -85 -103 0 c-56 0 -110 -3 -120 -7 -11 -4 -15 -2 -11 4 4
5 -7 45 -23 87 -17 43 -30 81 -30 87 0 5 37 10 83 11 l82 2 -89 5 -88 6 -24
64 c-25 66 -34 83 -34 63z m456 -159 c-4 -10 -1 -13 13 -8 10 3 23 -1 30 -9
10 -11 8 -17 -6 -25 -16 -9 -16 -10 -1 -11 9 0 20 5 23 10 11 18 23 10 44 -30
28 -54 27 -61 -4 -20 -17 23 -25 28 -25 17 0 -9 4 -17 9 -17 5 0 13 -9 16 -20
3 -11 13 -20 20 -20 8 0 -2 -16 -22 -35 -20 -19 -41 -35 -46 -35 -6 0 -7 -3
-4 -6 9 -10 -12 -46 -24 -39 -5 4 -9 -2 -9 -11 0 -13 -3 -15 -11 -7 -15 15 -1
36 20 28 13 -5 14 -4 4 6 -10 10 -16 10 -24 2 -9 -9 -18 -8 -38 4 l-26 15 25
-20 c30 -25 23 -38 -9 -16 -12 9 -20 22 -17 30 3 8 -3 23 -14 34 -14 14 -16
20 -6 20 18 0 27 25 14 38 -11 11 -2 52 13 52 5 0 7 -12 4 -27 -5 -27 -5 -28
5 -4 14 32 -5 55 -24 29 -16 -21 -30 -24 -23 -4 4 10 0 12 -16 8 -12 -3 -19
-1 -15 3 4 5 3 14 -3 21 -5 7 -12 24 -15 37 -4 25 -4 25 71 24 61 0 75 -3 71
-14z m-73 -145 c-2 -5 -9 -8 -15 -8 -6 0 -8 3 -5 6 3 4 0 16 -8 28 -24 33 -17
40 9 9 13 -15 22 -31 19 -35z m47 -130 c0 -9 4 -8 10 2 8 13 10 13 10 -2 0 -9
-5 -20 -10 -23 -6 -4 -7 -11 -4 -17 4 -7 2 -8 -5 -4 -6 4 -9 11 -6 16 3 5 1
11 -5 15 -13 8 -13 25 0 25 6 0 10 -6 10 -12z"/>
<path d="M6547 1537 c-3 -8 -2 -20 3 -26 5 -9 8 -4 8 13 0 29 -3 32 -11 13z"/>
<path d="M6658 1511 c15 -13 18 -21 10 -24 -10 -4 -10 -6 0 -6 7 -1 15 6 18
14 4 8 14 15 23 15 14 0 14 2 1 10 -9 6 -17 5 -21 -2 -4 -7 -14 -6 -30 2 l-24
11 23 -20z"/>
<path d="M6730 1480 c-8 -15 -8 -25 0 -38 10 -14 11 -14 7 -1 -3 9 1 26 9 38
8 11 11 21 5 21 -6 0 -15 -9 -21 -20z"/>
<path d="M6746 1423 c-3 -10 -11 -26 -18 -35 -20 -27 3 -40 27 -16 l20 21 -22
-12 c-13 -6 -23 -8 -23 -3 0 13 26 33 33 26 3 -3 3 3 0 15 -7 26 -9 26 -17 4z"/>
<path d="M6622 1386 c-9 -20 -8 -27 6 -38 15 -12 16 -11 3 5 -7 9 -9 17 -4 17
5 0 9 9 10 20 2 26 -1 25 -15 -4z"/>
<path d="M6450 1706 c0 -13 41 -98 46 -94 5 6 -33 98 -41 98 -3 0 -5 -2 -5 -4z"/>
<path d="M1690 1695 c0 -5 5 -17 10 -25 5 -8 10 -10 10 -5 0 6 -5 17 -10 25
-5 8 -10 11 -10 5z"/>
<path d="M3091 1684 c0 -11 3 -14 6 -6 3 7 2 16 -1 19 -3 4 -6 -2 -5 -13z"/>
<path d="M5628 1683 c23 -9 35 -43 21 -61 -12 -16 -12 -16 6 0 17 16 17 18 1
42 -9 14 -22 26 -29 25 -9 0 -9 -2 1 -6z"/>
<path d="M5212 1655 c0 -16 2 -22 5 -12 2 9 2 23 0 30 -3 6 -5 -1 -5 -18z"/>
<path d="M1680 1665 c0 -5 5 -17 10 -25 5 -8 10 -10 10 -5 0 6 -5 17 -10 25
-5 8 -10 11 -10 5z"/>
<path d="M2912 1650 c0 -14 2 -19 5 -12 2 6 2 18 0 25 -3 6 -5 1 -5 -13z"/>
<path d="M5911 1644 c0 -11 3 -14 6 -6 3 7 2 16 -1 19 -3 4 -6 -2 -5 -13z"/>
<path d="M3081 1634 c0 -11 3 -14 6 -6 3 7 2 16 -1 19 -3 4 -6 -2 -5 -13z"/>
<path d="M5321 1637 c-1 -9 14 -32 32 -50 17 -18 22 -21 10 -7 -12 14 -26 36
-32 50 -7 18 -10 20 -10 7z"/>
<path d="M1670 1635 c0 -5 5 -17 10 -25 5 -8 10 -10 10 -5 0 6 -5 17 -10 25
-5 8 -10 11 -10 5z"/>
<path d="M5493 1618 c11 -10 27 -18 36 -17 10 0 7 4 -8 10 -14 5 -30 13 -36
17 -6 4 -2 -1 8 -10z"/>
<path d="M5220 1612 c0 -7 15 -27 33 -45 17 -18 22 -21 11 -7 -12 14 -26 34
-32 45 -6 11 -12 14 -12 7z"/>
<path d="M5911 1604 c0 -11 3 -14 6 -6 3 7 2 16 -1 19 -3 4 -6 -2 -5 -13z"/>
<path d="M1660 1605 c0 -5 5 -17 10 -25 5 -8 10 -10 10 -5 0 6 -5 17 -10 25
-5 8 -10 11 -10 5z"/>
<path d="M3071 1594 c0 -11 3 -14 6 -6 3 7 2 16 -1 19 -3 4 -6 -2 -5 -13z"/>
<path d="M5774 1568 l-19 -23 23 19 c12 11 22 21 22 23 0 8 -8 2 -26 -19z"/>
<path d="M1650 1575 c0 -5 5 -17 10 -25 5 -8 10 -10 10 -5 0 6 -5 17 -10 25
-5 8 -10 11 -10 5z"/>
<path d="M5875 1545 c-17 -16 -39 -36 -50 -43 -11 -7 -6 -6 10 2 29 14 83 63
74 69 -2 1 -18 -11 -34 -28z"/>
<path d="M7444 1558 c-6 -22 -13 -22 -38 -3 -11 9 -41 15 -70 15 l-50 0 115
-68 c63 -38 115 -68 117 -67 2 2 -9 28 -23 60 -14 32 -25 59 -25 61 0 2 44 5
98 6 l97 3 -108 5 c-96 4 -108 3 -113 -12z m-55 -8 c10 -5 26 -21 35 -35 17
-25 17 -26 -4 -13 -11 7 -20 16 -20 21 0 4 -6 5 -12 1 -7 -4 -10 -4 -6 1 4 4
0 14 -10 21 -20 16 -9 18 17 4z m66 -19 c-3 -12 -11 -19 -16 -16 -5 4 -3 14 3
25 15 24 22 19 13 -9z m30 -52 c-3 -4 1 -10 7 -12 8 -3 8 -6 2 -6 -6 -1 -19 9
-30 21 -10 12 -13 18 -5 13 11 -6 13 -4 8 11 -7 19 -7 19 8 0 8 -10 12 -22 10
-27z"/>
<path d="M4718 1549 c-10 -5 -18 -18 -18 -27 0 -22 -59 -47 -74 -32 -17 17
-50 11 -78 -15 -32 -27 -34 -37 -14 -55 22 -18 1 -54 -37 -66 -28 -8 -32 -14
-35 -46 -3 -34 0 -38 25 -43 15 -4 34 -8 41 -11 21 -6 25 -34 8 -53 -16 -18
-16 -20 9 -39 39 -31 63 -36 89 -18 34 22 91 11 105 -21 10 -22 16 -24 68 -21
50 3 59 6 70 28 16 32 46 42 100 34 38 -5 48 -3 69 17 29 27 30 40 4 57 -17
10 -18 16 -8 36 6 16 21 26 37 28 29 3 36 23 22 61 -8 21 -17 27 -41 27 -39 0
-70 41 -49 66 11 14 10 19 -10 35 -31 25 -70 34 -90 22 -27 -17 -77 -4 -90 23
-8 19 -18 24 -48 24 -21 0 -46 -5 -55 -11z m151 -165 c67 -56 18 -134 -84
-134 -43 0 -60 5 -84 26 -38 31 -41 71 -8 101 29 27 43 31 99 32 36 1 53 -5
77 -25z"/>
<path d="M1640 1545 c0 -5 5 -17 10 -25 5 -8 10 -10 10 -5 0 6 -5 17 -10 25
-5 8 -10 11 -10 5z"/>
<path d="M4180 1535 c0 -19 -38 -34 -71 -28 -35 6 -78 -29 -61 -50 17 -19 5
-45 -21 -49 -17 -2 -22 -10 -22 -33 0 -24 5 -31 23 -33 28 -4 40 -30 21 -43
-11 -8 -10 -13 10 -29 25 -21 51 -26 67 -11 13 13 64 2 64 -14 0 -7 7 -16 16
-19 26 -10 84 4 84 20 0 20 47 37 68 25 20 -12 72 13 72 34 0 8 -5 15 -11 15
-6 0 -9 10 -7 23 2 14 11 23 26 25 19 3 23 9 20 30 -2 18 -10 28 -23 30 -11 2
-28 11 -37 20 -14 12 -15 18 -6 29 10 12 7 19 -12 34 -29 21 -42 23 -56 9 -13
-13 -64 4 -64 20 0 5 -18 10 -40 10 -29 0 -40 -4 -40 -15z m115 -105 c8 -7 15
-25 15 -41 0 -50 -89 -78 -138 -43 -22 15 -29 49 -14 70 23 34 103 42 137 14z"/>
<path d="M3838 1529 c-2 -6 -15 -13 -28 -14 -14 -1 -29 -3 -33 -4 -5 0 -5 -10
-2 -22 5 -15 2 -22 -14 -26 -25 -6 -28 -30 -4 -35 10 -2 18 -12 18 -23 0 -16
6 -20 32 -18 17 2 35 -2 38 -7 9 -14 52 -13 57 1 2 7 17 12 33 13 23 1 30 5
28 20 -1 11 6 26 15 33 16 12 15 14 -8 33 -14 11 -21 20 -16 20 5 0 3 7 -4 15
-7 9 -21 13 -35 9 -13 -3 -26 -1 -29 5 -9 14 -43 14 -48 0z m58 -53 c15 -12
17 -18 8 -33 -14 -23 -44 -27 -69 -9 -19 14 -19 15 -1 35 22 25 35 26 62 7z"/>
<path d="M5430 1530 c8 -5 20 -10 25 -10 6 0 3 5 -5 10 -8 5 -19 10 -25 10 -5
0 -3 -5 5 -10z"/>
<path d="M5300 1525 c0 -7 61 -37 66 -33 2 3 -12 12 -31 21 -19 9 -35 15 -35
12z"/>
<path d="M1636 1495 c4 -20 3 -26 -4 -17 -7 11 -11 8 -15 -9 -4 -13 -4 -25 -2
-28 3 -2 5 1 5 8 0 7 4 10 9 6 15 -8 24 32 11 52 -8 15 -9 12 -4 -12z"/>
<path d="M7291 1383 c33 -76 67 -145 75 -153 16 -16 -41 118 -57 135 -5 5 -9
19 -9 31 0 13 -4 25 -9 28 -14 9 -20 45 -9 53 7 4 8 1 3 -8 -5 -8 -5 -11 0 -7
10 10 106 -42 99 -53 -2 -4 -21 3 -41 16 -20 14 -41 25 -47 25 -6 -1 0 -7 14
-15 14 -8 19 -14 12 -15 -10 0 -10 -3 0 -14 7 -8 17 -12 22 -9 4 3 2 10 -5 15
-11 8 -11 9 1 5 8 -2 14 -10 13 -16 -4 -14 20 -14 34 0 9 9 16 7 29 -5 16 -17
14 -18 -32 -15 -27 1 -55 7 -62 12 -9 7 -11 6 -6 -7 5 -13 21 -16 87 -16 44 0
78 2 76 4 -7 6 -241 146 -244 146 -2 0 23 -62 56 -137z m-11 103 c0 -3 -4 -8
-10 -11 -5 -3 -10 -1 -10 4 0 6 5 11 10 11 6 0 10 -2 10 -4z"/>
<path d="M5548 1503 c18 -2 45 -2 60 0 15 2 0 4 -33 4 -33 0 -45 -2 -27 -4z"/>
<path d="M5458 1463 c7 -3 16 -2 19 1 4 3 -2 6 -13 5 -11 0 -14 -3 -6 -6z"/>
<path d="M5708 1463 c7 -3 16 -2 19 1 4 3 -2 6 -13 5 -11 0 -14 -3 -6 -6z"/>
<path d="M5538 1453 c12 -2 30 -2 40 0 9 3 -1 5 -23 4 -22 0 -30 -2 -17 -4z"/>
<path d="M5618 1453 c12 -2 30 -2 40 0 9 3 -1 5 -23 4 -22 0 -30 -2 -17 -4z"/>
<path d="M1591 1390 c0 -8 4 -22 9 -30 12 -18 12 -2 0 25 -6 13 -9 15 -9 5z"/>
<path d="M7168 1373 c23 -2 59 -2 80 0 20 2 1 4 -43 4 -44 0 -61 -2 -37 -4z"/>
<path d="M7546 1371 c-3 -5 12 -48 34 -96 22 -48 40 -89 40 -91 0 -2 -52 -4
-115 -4 -77 0 -115 -4 -115 -11 0 -18 64 -159 72 -159 8 0 2 18 -36 103 l-26
57 114 0 113 0 37 -81 c20 -45 39 -80 42 -77 2 3 -11 40 -30 81 l-35 76 112 4
112 3 -113 2 -113 2 -40 85 c-21 47 -39 90 -39 96 0 7 35 9 100 7 55 -2 100 0
100 5 0 10 -208 9 -214 -2z"/>
<path d="M3656 1349 c-13 -16 -25 -20 -46 -16 -29 6 -68 -22 -56 -41 10 -17
-5 -42 -25 -42 -14 0 -19 -7 -19 -25 0 -18 5 -25 19 -25 23 0 34 -23 18 -39
-15 -15 22 -43 48 -35 33 10 58 6 67 -11 14 -24 67 -19 94 10 20 22 27 24 45
14 18 -9 25 -7 42 10 16 15 18 24 10 32 -16 16 -5 39 18 39 30 0 24 37 -8 52
-18 9 -28 21 -28 36 0 30 -23 43 -66 36 -28 -5 -38 -2 -42 10 -9 23 -49 20
-71 -5z m78 -71 c37 -16 44 -48 16 -70 -41 -33 -120 -16 -120 26 0 20 42 52
72 55 4 1 18 -4 32 -11z"/>
<path d="M1580 1355 c0 -5 5 -17 10 -25 5 -8 10 -10 10 -5 0 6 -5 17 -10 25
-5 8 -10 11 -10 5z"/>
<path d="M5647 1353 c18 -2 50 -2 70 0 21 2 7 4 -32 4 -38 0 -55 -2 -38 -4z"/>
<path d="M5528 1333 c7 -3 16 -2 19 1 4 3 -2 6 -13 5 -11 0 -14 -3 -6 -6z"/>
<path d="M6778 1254 c-55 -69 -64 -84 -47 -84 13 0 18 4 13 13 -6 9 -5 9 7 0
8 -7 46 -13 84 -15 l69 -3 30 -75 c35 -86 34 -85 41 -78 3 3 -8 37 -25 76 -16
39 -30 73 -30 76 0 4 51 6 113 6 l112 0 31 -77 c18 -43 37 -79 43 -81 6 -2 -5
31 -24 73 -19 42 -35 78 -35 80 0 2 37 6 83 8 l82 3 -86 0 -87 -1 -12 34 c-22
61 -52 123 -56 118 -3 -3 8 -37 25 -76 l30 -71 -113 0 -113 0 -33 78 c-17 42
-33 78 -34 79 -1 1 -32 -36 -68 -83z m84 11 c1 -11 6 -22 10 -25 4 -3 9 -17
11 -31 5 -25 4 -25 -44 -19 -27 4 -53 2 -57 -2 -5 -5 -15 -1 -23 8 -12 16 -12
17 5 11 14 -6 17 -4 12 8 -4 10 2 19 18 25 13 5 27 14 31 20 3 5 11 8 16 5 5
-4 9 1 9 9 0 22 -17 20 -32 -4 -7 -11 -17 -20 -22 -20 -5 0 3 14 19 30 30 31
39 28 47 -15z"/>
<path d="M1570 1325 c0 -5 5 -17 10 -25 5 -8 10 -10 10 -5 0 6 -5 17 -10 25
-5 8 -10 11 -10 5z"/>
<path d="M5910 1316 c0 -2 20 -16 44 -30 25 -14 52 -33 61 -42 9 -9 18 -14 21
-11 3 3 -14 18 -38 35 -49 33 -88 55 -88 48z"/>
<path d="M2701 1294 c0 -11 3 -14 6 -6 3 7 2 16 -1 19 -3 4 -6 -2 -5 -13z"/>
<path d="M2992 1290 c0 -14 2 -19 5 -12 2 6 2 18 0 25 -3 6 -5 1 -5 -13z"/>
<path d="M1560 1295 c0 -5 5 -17 10 -25 5 -8 10 -10 10 -5 0 6 -5 17 -10 25
-5 8 -10 11 -10 5z"/>
<path d="M5425 1290 c-3 -6 1 -7 9 -4 18 7 21 14 7 14 -6 0 -13 -4 -16 -10z"/>
<path d="M5393 1268 c-15 -20 -25 -38 -20 -38 3 0 12 11 21 25 17 26 16 35 -1
13z"/>
<path d="M1556 1251 c4 -16 3 -21 -5 -17 -6 4 -11 2 -11 -3 0 -6 4 -11 9 -11
17 0 22 19 11 37 -9 15 -10 14 -4 -6z"/>
<path d="M2691 1254 c0 -11 3 -14 6 -6 3 7 2 16 -1 19 -3 4 -6 -2 -5 -13z"/>
<path d="M2981 1244 c0 -11 3 -14 6 -6 3 7 2 16 -1 19 -3 4 -6 -2 -5 -13z"/>
<path d="M3978 1219 c-2 -7 -17 -12 -33 -13 -21 -1 -30 -6 -30 -18 0 -10 -9
-24 -19 -31 -21 -15 -14 -37 10 -37 10 0 13 -6 9 -19 -6 -21 13 -32 43 -24 11
2 23 0 26 -6 10 -16 45 -13 63 5 9 8 22 13 31 9 19 -7 42 12 36 30 -3 7 -1 16
5 20 18 11 12 32 -10 38 -13 4 -18 10 -14 17 10 15 -15 31 -37 24 -9 -2 -19 0
-23 6 -8 14 -52 13 -57 -1z m66 -55 c21 -20 20 -21 -9 -40 -23 -15 -27 -15
-51 1 -25 16 -25 17 -8 36 21 23 47 24 68 3z"/>
<path d="M1380 1203 c0 -5 24 -7 52 -5 95 5 104 9 26 11 -43 0 -78 -2 -78 -6z"/>
<path d="M1842 1203 c153 -2 403 -2 555 0 153 1 28 2 -277 2 -305 0 -430 -1
-278 -2z"/>
<path d="M2998 1203 c7 -3 16 -2 19 1 4 3 -2 6 -13 5 -11 0 -14 -3 -6 -6z"/>
<path d="M3092 1203 c37 -2 100 -2 140 0 40 1 10 3 -67 3 -77 0 -110 -1 -73
-3z"/>
<path d="M3353 1193 c9 -14 47 -24 47 -12 0 5 -4 9 -9 9 -5 0 -17 3 -27 7 -11
4 -15 3 -11 -4z"/>
<path d="M4272 1164 c-19 -22 -28 -25 -54 -20 -24 5 -37 1 -55 -16 -16 -15
-20 -25 -13 -33 15 -18 2 -42 -25 -49 -22 -6 -40 -41 -29 -58 3 -4 16 -8 30
-8 29 0 42 -24 24 -45 -11 -13 -10 -18 6 -30 21 -16 70 -20 78 -6 9 15 55 0
61 -20 10 -30 105 -25 105 5 0 18 44 36 61 25 21 -13 34 -11 60 10 23 18 23
20 6 39 -17 18 -17 21 -2 36 9 9 23 16 31 16 8 0 14 6 14 14 0 29 -13 46 -36
46 -27 0 -49 31 -33 47 7 7 2 17 -17 32 -30 23 -40 26 -49 11 -10 -17 -44 -11
-62 10 -25 29 -73 26 -101 -6z m131 -103 c25 -25 16 -63 -18 -79 -94 -43 -185
37 -102 89 38 24 91 20 120 -10z"/>
<path d="M2770 1165 c-19 -7 -28 -14 -20 -14 8 0 29 6 45 14 39 17 21 18 -25
0z"/>
<path d="M2978 1173 c28 -2 76 -2 105 0 28 2 5 3 -53 3 -58 0 -81 -1 -52 -3z"/>
<path d="M5352 1155 c0 -16 2 -22 5 -12 2 9 2 23 0 30 -3 6 -5 -1 -5 -18z"/>
<path d="M6661 1165 c34 -91 62 -155 69 -155 10 0 -46 140 -62 155 -7 7 -9 7
-7 0z"/>
<path d="M1387 1149 c7 -7 15 -10 18 -7 3 3 -2 9 -12 12 -14 6 -15 5 -6 -5z"/>
<path d="M2899 1134 c-5 -15 -8 -29 -5 -31 2 -2 8 10 14 26 13 38 5 41 -9 5z"/>
<path d="M3285 1150 c-3 -5 -1 -10 4 -10 6 0 11 5 11 10 0 6 -2 10 -4 10 -3 0
-8 -4 -11 -10z"/>
<path d="M6072 1135 c0 -16 2 -22 5 -12 2 9 2 23 0 30 -3 6 -5 -1 -5 -18z"/>
<path d="M3075 1088 c-187 -63 -191 -65 -184 -73 7 -7 379 118 379 127 0 12 1
12 -195 -54z"/>
<path d="M1520 1133 c231 -7 637 -7 627 -1 -7 4 -172 7 -367 6 -195 -1 -312
-3 -260 -5z"/>
<path d="M2383 1133 c59 -2 155 -2 215 0 59 1 10 3 -108 3 -118 0 -167 -2
-107 -3z"/>
<path d="M2832 1100 c0 -19 2 -27 5 -17 2 9 2 25 0 35 -3 9 -5 1 -5 -18z"/>
<path d="M2178 1113 c6 -2 18 -2 25 0 6 3 1 5 -13 5 -14 0 -19 -2 -12 -5z"/>
<path d="M2238 1103 c6 -2 18 -2 25 0 6 3 1 5 -13 5 -14 0 -19 -2 -12 -5z"/>
<path d="M2290 1100 c0 -5 6 -10 14 -10 8 0 18 5 21 10 3 6 -3 10 -14 10 -12
0 -21 -4 -21 -10z"/>
<path d="M2340 1093 c0 -5 33 -15 73 -21 39 -6 89 -15 110 -18 21 -4 37 -3 37
3 0 5 -37 15 -82 22 -46 7 -95 15 -110 18 -16 3 -28 1 -28 -4z"/>
<path d="M6056 1083 c-6 -14 -5 -15 5 -6 7 7 10 15 7 18 -3 3 -9 -2 -12 -12z"/>
<path d="M5395 1070 c10 -11 20 -20 23 -20 3 0 -3 9 -13 20 -10 11 -20 20 -23
20 -3 0 3 -9 13 -20z"/>
<path d="M2570 1053 c0 -10 150 -37 158 -28 10 9 -3 14 -53 19 -28 3 -62 9
-77 12 -16 4 -28 2 -28 -3z"/>
<path d="M2866 1043 c-6 -14 -5 -15 5 -6 7 7 10 15 7 18 -3 3 -9 -2 -12 -12z"/>
<path d="M2745 1020 c3 -5 15 -10 26 -10 11 0 17 5 14 10 -3 6 -15 10 -26 10
-11 0 -17 -4 -14 -10z"/>
<path d="M2800 1010 c0 -5 7 -10 16 -10 8 0 12 5 9 10 -3 6 -10 10 -16 10 -5
0 -9 -4 -9 -10z"/>
<path d="M5608 973 c7 -3 16 -2 19 1 4 3 -2 6 -13 5 -11 0 -14 -3 -6 -6z"/>
<path d="M5858 973 c7 -3 16 -2 19 1 4 3 -2 6 -13 5 -11 0 -14 -3 -6 -6z"/>
<path d="M5703 963 c20 -2 54 -2 75 0 20 2 3 4 -38 4 -41 0 -58 -2 -37 -4z"/>
</g>
</svg>
